<svg xmlns="http://www.w3.org/2000/svg" width="200" height="108.286" viewBox="0 0 200 108.286"><g fill="#fff"><path d="M190.857 35.048c0-3.87-2.967-9.982-11.295-15.535-9.594-6.396-23.73-10.473-42.014-12.116-3.623-.326-7.348-.49-11.072-.49-9.348 0-18.778 1.04-26.556 2.926-11.756 2.854-13.567 6.028-13.83 8.475-.118 1.08-.067 4.666 5.395 5.938-2.046.22-4.053.51-6.01.865-2.62.477-6.18 1.744-9.807 3.983-.383-.237-.83-.38-1.312-.38h-24c-1.38 0-2.5 1.12-2.5 2.5s1.12 2.5 2.5 2.5H69.78c-3.023 2.986-5.734 6.818-7.52 11.668-2.253-1.462-4.985-2.667-7.737-2.667h-.002c-.625 0-1.243.014-1.835.14-3.55.76-5.986 4.588-6.356 10.027-.13 1.88.015 3.854.42 5.833H10.357c-1.38 0-2.5 1.12-2.5 2.5s1.12 2.5 2.5 2.5h38c.014 0 .026-.004.04-.004 2.3 4.948 6.54 9.405 13.1 11.777 5.934 2.146 11.55 2.414 16.982 2.68 9.46.463 16.982.827 24.242 10.772.45 2.935.734 5.958.644 6.928-.48 1.463-.25 3.035.65 4.362 1.575 2.328 4.878 3.507 9.817 3.507 3.16 0 6.94-.49 11.234-1.456 7.445-1.674 20.585-5.72 31.295-10.213 16.004-6.713 23.043-12.52 22.825-18.826-.157-4.554-3.273-7.497-7.938-7.497-1.167 0-2.437.188-3.747.502 3.22-4.843 4.69-10.235 4.392-16.09 6.714-1.747 18.962-6.164 18.962-15.107zm-23.333 12c5.333 30.666-43.667 36.666-43.667 36.666 0-11.334-11-14.334-11-14.334 10 4.334 9.667 17.668 9.667 17.668.33.04.685.06 1.065.06 8.894 0 31.267-10.728 31.267-10.728s10.48-6.636 16.393-6.636c2.256 0 3.85.966 3.94 3.636.334 9.667-37.666 22-51 25-4.374.984-7.778 1.358-10.356 1.358-5.28 0-7.09-1.57-6.643-2.69.667-1.667-.666-9.668-.666-9.668-13-18.666-28-10-43.667-15.666s-14-24-9.333-25c.325-.07.66-.103 1-.103 4.52.002 10 5.77 10 5.77 3.333-20 21.667-23.333 21.667-23.333 5.227-.95 10.423-1.333 15.423-1.333 19.553 0 36.06 5.87 39.244 6.667 1.307.328 3.04.62 4.852.62 3.733 0 7.8-1.238 9.147-5.952 2-7-5.666-9-5.666-9-.106-.018-.335-.026-.674-.026-4.168 0-24.95 1.255-40.524 1.255-6.697 0-12.433-.232-15.468-.896-9.354-2.045 9.23-9.474 33.952-9.474 3.47 0 7.064.146 10.715.475 40.85 3.673 49.667 19 49.667 23.668 0 8.333-19.333 12-19.333 12zm-48.428-21.933c7.396-.192 14.838-.516 20.402-.76 4.262-.184 7.633-.33 8.988-.333.68.257 1.95.886 2.463 1.81.188.34.4.93.06 2.117-.26.912-.87 3.05-5.302 3.05-1.643 0-3.137-.313-3.88-.5-.36-.09-1.08-.304-1.915-.553-3.67-1.095-11.25-3.356-20.817-4.832z"/><circle cx="174.524" cy="30.714" r="2.5"/><path d="M16.19 51.714h13.333c1.29 0 2.334-1.045 2.334-2.334v-.332c0-1.29-1.045-2.334-2.334-2.334H16.19c-1.288 0-2.333 1.045-2.333 2.334v.332c0 1.29 1.045 2.334 2.334 2.334zM68.857 81.714h-35c-1.656 0-3 1.343-3 3s1.344 3 3 3h35c1.656 0 3-1.343 3-3s-1.343-3-3-3zM42.524 72.714c1.288 0 2.333-1.045 2.333-2.333v-.333c0-1.288-1.045-2.333-2.333-2.333H38.19c-1.288 0-2.333 1.045-2.333 2.333v.334c0 1.29 1.045 2.334 2.333 2.334h4.334zM33.19 41.714h8.333c1.29 0 2.334-1.045 2.334-2.334v-.332c0-1.29-1.045-2.334-2.334-2.334H33.19c-1.288 0-2.333 1.045-2.333 2.334v.332c0 1.29 1.045 2.334 2.334 2.334zM45.19 22.714h12.333c1.29 0 2.334-1.045 2.334-2.333v-.333c0-1.288-1.045-2.333-2.334-2.333H45.19c-1.288 0-2.333 1.045-2.333 2.333v.334c0 1.29 1.045 2.334 2.334 2.334z"/></g></svg>